<?xml version="1.0" encoding="UTF-8" standalone="no"?>
<!-- Created with Inkscape (http://www.inkscape.org/) -->

<svg
   version="1.1"
   id="svg25499"
   width="917.56665"
   height="782.96399"
   viewBox="0 0 917.56665 782.96399"
   sodipodi:docname="logo.svg"
   inkscape:version="1.2 (1:1.2.1+202207142221+cd75a1ee6d)"
   xmlns:inkscape="http://www.inkscape.org/namespaces/inkscape"
   xmlns:sodipodi="http://sodipodi.sourceforge.net/DTD/sodipodi-0.dtd"
   xmlns="http://www.w3.org/2000/svg"
   xmlns:svg="http://www.w3.org/2000/svg">
  <defs
     id="defs25503">
    <clipPath
       clipPathUnits="userSpaceOnUse"
       id="clipPath25515">
      <path
         d="M 0,587.223 H 688.175 V 0 H 0 Z"
         id="path25513" />
    </clipPath>
    <clipPath
       clipPathUnits="userSpaceOnUse"
       id="clipPath25587">
      <path
         d="M 0,587.223 H 688.175 V 0 H 0 Z"
         id="path25585" />
    </clipPath>
    <clipPath
       clipPathUnits="userSpaceOnUse"
       id="clipPath25659">
      <path
         d="M 0,587.223 H 688.175 V 0 H 0 Z"
         id="path25657" />
    </clipPath>
  </defs>
  <sodipodi:namedview
     id="namedview25501"
     pagecolor="#ffffff"
     bordercolor="#999999"
     borderopacity="1"
     inkscape:showpageshadow="0"
     inkscape:pageopacity="0"
     inkscape:pagecheckerboard="0"
     inkscape:deskcolor="#d1d1d1"
     showgrid="false"
     inkscape:zoom="0.38517869"
     inkscape:cx="459.52698"
     inkscape:cy="392.02584"
     inkscape:window-width="1920"
     inkscape:window-height="1007"
     inkscape:window-x="0"
     inkscape:window-y="0"
     inkscape:window-maximized="1"
     inkscape:current-layer="g25507" />
  <g
     id="g25507"
     inkscape:groupmode="layer"
     inkscape:label="Page 1"
     transform="matrix(1.3333333,0,0,-1.3333333,0,782.964)">
    <g
       id="g25509">
      <g
         id="g25511"
         clip-path="url(#clipPath25515)">
        <g
           id="g25517"
           transform="translate(119.6836,310.96)">
          <path
             d="m 0,0 c 4.803,0 9.058,1.35 12.765,4.053 3.697,2.701 6.406,6.207 8.108,10.511 H 33.031 C 30.732,7.154 26.526,1.203 20.423,-3.303 c -6.406,-4.605 -14.017,-6.91 -22.819,-6.91 -11.014,0 -19.974,3.756 -26.879,11.264 -6.71,7.306 -10.056,16.461 -10.056,27.476 0,11.007 3.346,20.167 10.056,27.474 6.905,7.508 15.865,11.258 26.879,11.258 8.802,0 16.413,-2.303 22.819,-6.905 6.103,-4.505 10.309,-10.46 12.608,-17.867 H 20.873 C 19.171,46.792 16.462,50.294 12.765,52.999 9.058,55.698 4.803,57.052 0,57.052 c -4.803,0 -8.882,-0.752 -12.236,-2.254 -3.356,-1.502 -6.182,-3.551 -8.481,-6.152 -4.91,-5.409 -7.355,-12.114 -7.355,-20.119 0,-8.011 2.445,-14.716 7.355,-20.121 C -15.709,2.801 -8.804,0 0,0"
             style="fill:#231f20;fill-opacity:1;fill-rule:nonzero;stroke:none"
             id="path25519" />
        </g>
        <g
           id="g25521"
           transform="translate(175.0459,407.0488)">
          <path
             d="m 0,0 v -41.74 c 2.699,3.603 6.006,6.656 9.908,9.16 3.903,2.498 8.354,3.75 13.362,3.75 4.998,0 9.311,-0.699 12.911,-2.102 3.599,-1.4 6.758,-3.502 9.459,-6.304 6.201,-6.104 9.311,-14.164 9.311,-24.17 v -43.693 H 43.683 v 43.39 c 0,6.904 -1.947,12.412 -5.849,16.516 -3.903,4.103 -8.96,6.156 -15.161,6.156 -6.309,0 -11.669,-2.102 -16.071,-6.309 C 2.2,-49.648 0,-55.156 0,-61.861 v -43.238 H -11.269 V 0 Z"
             style="fill:#231f20;fill-opacity:1;fill-rule:nonzero;stroke:none"
             id="path25523" />
        </g>
        <g
           id="g25525"
           transform="translate(279.2559,310.96)">
          <path
             d="m 0,0 c 8.108,0 14.505,2.801 19.22,8.406 4.499,5.307 6.749,12.012 6.749,20.121 0,8.107 -2.25,14.812 -6.749,20.119 -4.715,5.605 -11.112,8.406 -19.22,8.406 -8.012,0 -14.516,-2.801 -19.523,-8.406 -4.706,-5.307 -7.053,-12.012 -7.053,-20.119 0,-8.109 2.347,-14.814 7.053,-20.121 C -14.516,2.801 -8.012,0 0,0 m 25.372,3.002 c -6.006,-8.809 -14.965,-13.215 -26.879,-13.215 -10.808,0 -19.621,3.756 -26.419,11.264 -6.612,7.404 -9.908,16.564 -9.908,27.476 0,10.904 3.296,20.064 9.908,27.474 6.798,7.508 15.865,11.258 27.172,11.258 11.308,0 20.023,-4.455 26.126,-13.362 V 66.062 H 36.631 V -9.01 H 25.372 Z"
             style="fill:#231f20;fill-opacity:1;fill-rule:nonzero;stroke:none"
             id="path25527" />
        </g>
        <g
           id="g25529"
           transform="translate(365.4287,310.96)">
          <path
             d="m 0,0 c 8.108,0 14.516,2.801 19.22,8.406 4.509,5.307 6.759,12.012 6.759,20.121 0,8.107 -2.25,14.812 -6.759,20.119 -4.704,5.605 -11.112,8.406 -19.22,8.406 -8.108,0 -14.516,-2.801 -19.211,-8.406 -4.509,-5.307 -6.759,-12.012 -6.759,-20.119 0,-8.109 2.25,-14.814 6.759,-20.121 C -14.516,2.801 -8.108,0 0,0 m 0,67.259 c 11.209,0 20.325,-3.75 27.329,-11.258 6.603,-7.209 9.908,-16.363 9.908,-27.474 C 37.237,17.414 33.932,8.254 27.329,1.051 20.325,-6.457 11.209,-10.213 0,-10.213 c -11.21,0 -20.315,3.756 -27.319,11.264 -6.613,7.203 -9.909,16.363 -9.909,27.476 0,11.111 3.296,20.265 9.909,27.474 7.004,7.508 16.109,11.258 27.319,11.258"
             style="fill:#231f20;fill-opacity:1;fill-rule:nonzero;stroke:none"
             id="path25531" />
        </g>
        <g
           id="g25533"
           transform="translate(458.9473,356.9004)">
          <path
             d="m 0,0 c -0.997,7.807 -7.277,11.713 -18.839,11.713 -11.561,0 -17.342,-3.604 -17.342,-10.813 0,-3.002 1.223,-5.281 3.678,-6.832 2.455,-1.55 5.526,-2.826 9.233,-3.824 3.708,-1.004 7.738,-1.932 12.09,-2.777 4.353,-0.858 8.383,-2.055 12.08,-3.605 3.707,-1.554 6.788,-3.677 9.234,-6.383 2.455,-2.703 3.678,-6.406 3.678,-11.111 0,-7.306 -2.749,-12.887 -8.256,-16.74 -5.507,-3.854 -12.96,-5.781 -22.369,-5.781 -10.007,0 -17.969,2.504 -23.867,7.507 -5.409,4.407 -8.314,10.159 -8.716,17.27 h 11.718 c 0.696,-6.906 4.598,-11.562 11.709,-13.963 2.602,-0.803 5.174,-1.203 7.727,-1.203 2.553,0 4.929,0.15 7.131,0.449 2.201,0.303 4.362,0.852 6.456,1.653 4.811,1.898 7.208,5.156 7.208,9.757 0,3.106 -1.223,5.483 -3.678,7.135 -2.455,1.649 -5.526,3.004 -9.233,4.055 -3.707,1.047 -7.727,2 -12.08,2.851 -4.363,0.846 -8.392,2.026 -12.089,3.526 -3.707,1.502 -6.789,3.55 -9.235,6.157 -2.455,2.602 -3.677,6.205 -3.677,10.809 0,6.806 2.474,12.089 7.434,15.839 4.949,3.756 12.285,5.629 21.988,5.629 9.214,0 16.472,-2.201 21.773,-6.601 C 8.158,11.01 10.711,6.104 11.415,0 Z"
             style="fill:#231f20;fill-opacity:1;fill-rule:nonzero;stroke:none"
             id="path25535" />
        </g>
        <g
           id="g25537"
           transform="translate(118.0303,209.8145)">
          <path
             d="M 0,0 32.435,-45.492 H 18.624 L -7.648,-7.805 -21.764,-21.773 V -45.492 H -33.031 V 59.607 h 11.267 V -7.658 l 36.182,37.236 h 15.768 z"
             style="fill:#231f20;fill-opacity:1;fill-rule:nonzero;stroke:none"
             id="path25539" />
        </g>
        <g
           id="g25541"
           transform="translate(186.7344,173.3301)">
          <path
             d="m 0,0 c 8.108,0 14.516,2.803 19.22,8.408 4.509,5.307 6.759,12.012 6.759,20.119 0,8.11 -2.25,14.815 -6.759,20.121 -4.704,5.604 -11.112,8.407 -19.22,8.407 -8.108,0 -14.516,-2.803 -19.211,-8.407 -4.509,-5.306 -6.759,-12.011 -6.759,-20.121 0,-8.107 2.25,-14.812 6.759,-20.119 C -14.516,2.803 -8.108,0 0,0 m 0,67.262 c 11.209,0 20.325,-3.752 27.329,-11.258 6.602,-7.209 9.908,-16.365 9.908,-27.477 C 37.237,17.416 33.931,8.256 27.329,1.053 20.325,-6.455 11.209,-10.211 0,-10.211 c -11.21,0 -20.315,3.756 -27.319,11.264 -6.613,7.203 -9.909,16.363 -9.909,27.474 0,11.112 3.296,20.268 9.909,27.477 C -20.315,63.51 -11.21,67.262 0,67.262"
             style="fill:#231f20;fill-opacity:1;fill-rule:nonzero;stroke:none"
             id="path25543" />
        </g>
        <path
           d="m 247.466,164.322 h -11.258 v 105.1 h 11.258 z"
           style="fill:#231f20;fill-opacity:1;fill-rule:nonzero;stroke:none"
           id="path25545" />
        <path
           d="m 275.167,164.322 h -11.259 v 105.1 h 11.259 z"
           style="fill:#231f20;fill-opacity:1;fill-rule:nonzero;stroke:none"
           id="path25547" />
        <g
           id="g25549"
           transform="translate(324.7969,230.3848)">
          <path
             d="m 0,0 c -6.905,0 -12.706,-2.156 -17.41,-6.455 -4.412,-4.109 -7.111,-9.459 -8.11,-16.066 h 51.049 c -1.008,6.607 -3.707,11.957 -8.108,16.066 C 12.716,-2.156 6.906,0 0,0 m 0.9,-57.055 c 10.114,0 17.371,4.207 21.773,12.614 h 12.315 c -2.602,-6.807 -6.729,-12.315 -12.393,-16.516 -5.654,-4.205 -12.931,-6.309 -21.842,-6.309 -11.307,0 -20.521,3.756 -27.622,11.264 -6.905,7.307 -10.359,16.461 -10.359,27.475 0,11.111 3.297,20.267 9.909,27.476 7.004,7.506 16.11,11.258 27.319,11.258 11.21,0 20.326,-3.752 27.329,-11.258 6.603,-7.209 9.908,-16.365 9.908,-27.476 v -4.504 h -62.903 c 0.792,-6.907 3.551,-12.614 8.256,-17.117 4.803,-4.602 10.906,-6.907 18.31,-6.907"
             style="fill:#231f20;fill-opacity:1;fill-rule:nonzero;stroke:none"
             id="path25551" />
        </g>
        <g
           id="g25553"
           transform="translate(406.6074,209.8145)">
          <path
             d="M 0,0 32.436,-45.492 H 18.624 L -7.648,-7.805 -21.763,-21.773 V -45.492 H -33.031 V 59.607 h 11.268 V -7.658 l 36.181,37.236 h 15.768 z"
             style="fill:#231f20;fill-opacity:1;fill-rule:nonzero;stroke:none"
             id="path25555" />
        </g>
        <g
           id="g25557"
           transform="translate(457.4902,164.3223)">
          <path
             d="M 0,0 V 65.162 H -15.308 V 75.07 H 0 v 26.875 H 11.268 V 75.07 H 28.532 V 65.162 H 11.268 V 0 Z"
             style="fill:#231f20;fill-opacity:1;fill-rule:nonzero;stroke:none"
             id="path25559" />
        </g>
        <path
           d="m 494.903,239.393 h 11.269 v -75.07 h -11.269 z m 11.718,12.609 h -12.168 v 14.715 h 12.168 z"
           style="fill:#231f20;fill-opacity:1;fill-rule:nonzero;stroke:none"
           id="path25561" />
        <g
           id="g25563"
           transform="translate(586.0947,239.3926)">
          <path
             d="M 0,0 -29.275,-75.07 H -42.48 L -71.912,0 h 12.314 L -35.878,-63.059 -12.305,0 Z"
             style="fill:#231f20;fill-opacity:1;fill-rule:nonzero;stroke:none"
             id="path25565" />
        </g>
        <path
           d="m 597.988,164.322 h -14.564 v 15.313 h 14.564 z"
           style="fill:#231f20;fill-opacity:1;fill-rule:nonzero;stroke:none"
           id="path25567" />
        <g
           id="g25569"
           transform="translate(563.5195,381.1094)">
          <path
             d="m 0,0 c -3.942,1.041 -6.965,0.637 -9.224,-0.709 -1.252,2.322 -3.629,4.227 -7.551,5.365 -19.093,5.545 -34.617,-18.017 -32.934,-22.697 1.702,-4.686 14.535,-10.75 24.767,-8.604 3.296,0.686 7.306,3.625 10.583,7.459 0.832,-4.974 2.758,-9.56 5.233,-11.849 7.648,-7.111 21.772,-8.528 25.656,-5.395 C 20.384,-33.285 19.239,-5.096 0,0"
             style="fill:#583da0;fill-opacity:1;fill-rule:nonzero;stroke:none"
             id="path25571" />
        </g>
        <g
           id="g25573"
           transform="translate(606.625,398.3789)">
          <path
             d="m 0,0 c -0.01,5.932 -29.069,12.74 -49.698,-10.75 -0.343,-0.391 -0.636,-0.764 -0.94,-1.139 -0.078,0.483 -0.136,0.953 -0.224,1.461 -5.576,30.762 -33.981,39.914 -37.042,34.832 -3.081,-5.092 -1.321,-27.07 6.015,-40.662 4.764,-8.846 17.665,-16.119 25.001,-18.152 7.317,-2.035 22.125,-2.455 30.773,2.67 C -12.823,-23.877 0.01,-5.953 0,0"
             style="fill:#e73329;fill-opacity:1;fill-rule:nonzero;stroke:none"
             id="path25575" />
        </g>
      </g>
    </g>
  </g>
  <g
     id="g25579"
     inkscape:groupmode="layer"
     inkscape:label="Page 2"
     transform="matrix(1.3333333,0,0,-1.3333333,937.56667,782.964)" />
  <g
     id="g25651"
     inkscape:groupmode="layer"
     inkscape:label="Page 3"
     transform="matrix(1.3333333,0,0,-1.3333333,1875.1333,782.964)" />
</svg>
