<?xml version="1.0" encoding="utf-8"?>
<!-- Generator: Adobe Illustrator 16.0.0, SVG Export Plug-In . SVG Version: 6.00 Build 0)  -->
<!DOCTYPE svg PUBLIC "-//W3C//DTD SVG 1.1//EN" "http://www.w3.org/Graphics/SVG/1.1/DTD/svg11.dtd">
<svg version="1.1" id="Ebene_1" xmlns="http://www.w3.org/2000/svg" xmlns:xlink="http://www.w3.org/1999/xlink" x="0px" y="0px"
	 width="688.175px" height="587.223px" viewBox="0 0 688.175 587.223" enable-background="new 0 0 688.175 587.223"
	 xml:space="preserve">
<g>
	<g>
		<path d="M119.684,276.263c4.803,0,9.058-1.35,12.765-4.053c3.697-2.701,6.406-6.207,8.108-10.512h12.158
			c-2.299,7.41-6.505,13.361-12.608,17.867c-6.406,4.605-14.017,6.91-22.819,6.91c-11.014,0-19.974-3.756-26.879-11.264
			c-6.71-7.307-10.056-16.461-10.056-27.477c0-11.007,3.346-20.167,10.056-27.474c6.905-7.508,15.865-11.258,26.879-11.258
			c8.803,0,16.413,2.303,22.819,6.904c6.104,4.506,10.31,10.461,12.608,17.867h-12.158c-1.702-4.305-4.411-7.807-8.108-10.512
			c-3.707-2.699-7.962-4.053-12.765-4.053s-8.882,0.752-12.236,2.254c-3.355,1.502-6.182,3.551-8.48,6.152
			c-4.91,5.408-7.355,12.113-7.355,20.118c0,8.012,2.445,14.717,7.355,20.121C103.975,273.462,110.88,276.263,119.684,276.263z"/>
		<path d="M175.046,180.174v41.74c2.699-3.604,6.006-6.656,9.908-9.16c3.902-2.498,8.354-3.75,13.361-3.75
			c4.998,0,9.312,0.699,12.911,2.102c3.6,1.4,6.759,3.502,9.459,6.305c6.201,6.104,9.312,14.164,9.312,24.17v43.692h-11.269v-43.39
			c0-6.904-1.946-12.412-5.849-16.516c-3.903-4.104-8.96-6.156-15.161-6.156c-6.309,0-11.669,2.102-16.071,6.309
			c-4.401,4.303-6.602,9.811-6.602,16.516v43.237h-11.269V180.174H175.046z"/>
		<path d="M304.628,273.261c-6.006,8.809-14.965,13.215-26.879,13.215c-10.809,0-19.621-3.756-26.419-11.264
			c-6.612-7.404-9.908-16.564-9.908-27.477c0-10.903,3.296-20.063,9.908-27.474c6.798-7.508,15.865-11.258,27.172-11.258
			c11.308,0,20.022,4.455,26.126,13.361v-12.164h11.259v75.071h-11.259V273.261z M279.256,276.263c8.108,0,14.505-2.801,19.22-8.406
			c4.499-5.307,6.749-12.012,6.749-20.121c0-8.106-2.25-14.812-6.749-20.118c-4.715-5.605-11.111-8.406-19.22-8.406
			c-8.012,0-14.516,2.801-19.523,8.406c-4.705,5.307-7.053,12.012-7.053,20.118c0,8.109,2.348,14.814,7.053,20.121
			C264.74,273.462,271.244,276.263,279.256,276.263z"/>
		<path d="M365.429,209.004c11.209,0,20.325,3.75,27.329,11.258c6.603,7.209,9.908,16.363,9.908,27.474
			c0,11.113-3.306,20.273-9.908,27.477c-7.004,7.508-16.12,11.264-27.329,11.264c-11.21,0-20.315-3.756-27.319-11.264
			c-6.612-7.203-9.908-16.363-9.908-27.477c0-11.11,3.296-20.265,9.908-27.474C345.113,212.754,354.219,209.004,365.429,209.004z
			 M365.429,276.263c8.108,0,14.516-2.801,19.22-8.406c4.51-5.307,6.759-12.012,6.759-20.121c0-8.106-2.249-14.812-6.759-20.118
			c-4.704-5.605-11.111-8.406-19.22-8.406s-14.516,2.801-19.211,8.406c-4.509,5.307-6.759,12.012-6.759,20.118
			c0,8.109,2.25,14.814,6.759,20.121C350.913,273.462,357.32,276.263,365.429,276.263z"/>
		<path d="M458.947,230.322c-0.997-7.807-7.277-11.713-18.839-11.713s-17.342,3.604-17.342,10.812c0,3.002,1.223,5.281,3.678,6.832
			s5.526,2.826,9.233,3.824c3.707,1.004,7.737,1.932,12.09,2.777c4.353,0.857,8.383,2.055,12.08,3.604
			c3.707,1.555,6.788,3.678,9.233,6.383c2.455,2.703,3.678,6.406,3.678,11.111c0,7.307-2.749,12.887-8.256,16.74
			s-12.96,5.781-22.369,5.781c-10.007,0-17.969-2.504-23.866-7.508c-5.409-4.406-8.314-10.158-8.716-17.27h11.718
			c0.695,6.906,4.598,11.562,11.709,13.963c2.602,0.803,5.174,1.203,7.727,1.203s4.93-0.15,7.131-0.449
			c2.201-0.303,4.362-0.852,6.456-1.652c4.812-1.898,7.208-5.156,7.208-9.758c0-3.105-1.223-5.482-3.678-7.135
			c-2.455-1.648-5.526-3.004-9.233-4.055c-3.707-1.047-7.727-2-12.08-2.852c-4.362-0.846-8.392-2.025-12.089-3.525
			c-3.707-1.502-6.789-3.55-9.234-6.157c-2.455-2.602-3.678-6.205-3.678-10.809c0-6.807,2.475-12.09,7.435-15.84
			c4.949-3.756,12.285-5.629,21.988-5.629c9.214,0,16.472,2.201,21.772,6.602c4.402,3.707,6.955,8.613,7.659,14.717H458.947z"/>
		<path d="M118.03,377.408l32.435,45.492h-13.811l-26.272-37.688l-14.115,13.969V422.9H84.999v-105.1h11.268v67.266l36.182-37.236
			h15.768L118.03,377.408z"/>
		<path d="M186.734,346.631c11.209,0,20.325,3.752,27.329,11.258c6.602,7.209,9.908,16.365,9.908,27.477s-3.307,20.271-9.908,27.475
			c-7.004,7.508-16.12,11.264-27.329,11.264c-11.21,0-20.315-3.756-27.319-11.264c-6.612-7.203-9.908-16.363-9.908-27.475
			s3.296-20.268,9.908-27.477C166.419,350.383,175.524,346.631,186.734,346.631z M186.734,413.893c8.108,0,14.516-2.803,19.22-8.408
			c4.51-5.307,6.759-12.012,6.759-20.119c0-8.109-2.249-14.814-6.759-20.121c-4.704-5.604-11.111-8.406-19.22-8.406
			s-14.516,2.803-19.211,8.406c-4.509,5.307-6.759,12.012-6.759,20.121c0,8.107,2.25,14.812,6.759,20.119
			C172.219,411.09,178.626,413.893,186.734,413.893z"/>
		<path d="M247.466,422.9h-11.258v-105.1h11.258V422.9z"/>
		<path d="M275.167,422.9h-11.259v-105.1h11.259V422.9z"/>
		<path d="M325.697,413.893c10.113,0,17.371-4.207,21.772-12.613h12.315c-2.603,6.807-6.729,12.314-12.394,16.516
			c-5.653,4.205-12.931,6.309-21.842,6.309c-11.307,0-20.521-3.756-27.622-11.264c-6.905-7.307-10.358-16.461-10.358-27.475
			c0-11.111,3.297-20.268,9.908-27.477c7.004-7.506,16.11-11.258,27.319-11.258c11.21,0,20.326,3.752,27.329,11.258
			c6.603,7.209,9.908,16.365,9.908,27.477v4.504h-62.903c0.792,6.906,3.551,12.613,8.256,17.117
			C312.189,411.588,318.293,413.893,325.697,413.893z M324.797,356.838c-6.905,0-12.706,2.156-17.41,6.455
			c-4.412,4.109-7.111,9.459-8.109,16.066h51.049c-1.008-6.607-3.707-11.957-8.108-16.066
			C337.513,358.994,331.703,356.838,324.797,356.838z"/>
		<path d="M406.607,377.408l32.436,45.492h-13.812l-26.272-37.688l-14.114,13.969V422.9h-11.269v-105.1h11.269v67.266l36.181-37.236
			h15.768L406.607,377.408z"/>
		<path d="M457.49,422.9v-65.162h-15.308v-9.908h15.308v-26.875h11.268v26.875h17.265v9.908h-17.265V422.9H457.49z"/>
		<path d="M506.621,320.506v14.715h-12.168v-14.715H506.621z M494.903,347.83h11.269v75.07h-11.269V347.83z"/>
		<path d="M586.095,347.83l-29.275,75.07h-13.205l-29.432-75.07h12.314l23.72,63.059l23.573-63.059H586.095z"/>
		<path d="M597.988,407.588V422.9h-14.564v-15.312H597.988z"/>
	</g>
	<g>
		<path fill="#613E91" d="M563.52,206.113c-3.942-1.041-6.965-0.637-9.224,0.709c-1.252-2.322-3.629-4.227-7.552-5.365
			c-19.093-5.545-34.616,18.018-32.934,22.697c1.702,4.686,14.535,10.75,24.767,8.604c3.296-0.686,7.307-3.625,10.583-7.459
			c0.832,4.975,2.759,9.561,5.233,11.85c7.648,7.111,21.772,8.528,25.656,5.395C583.903,239.398,582.759,211.209,563.52,206.113z"/>
		<path fill="#E03620" d="M606.625,188.844c-0.01-5.932-29.069-12.74-49.698,10.75c-0.343,0.391-0.636,0.764-0.939,1.139
			c-0.078-0.482-0.137-0.953-0.225-1.461c-5.575-30.762-33.98-39.914-37.042-34.832c-3.081,5.092-1.32,27.07,6.016,40.662
			c4.764,8.846,17.665,16.119,25.001,18.152c7.316,2.035,22.125,2.455,30.772-2.67C593.802,212.721,606.635,194.797,606.625,188.844
			z"/>
	</g>
</g>
</svg>
