<?xml version="1.0" encoding="utf-8"?>
<!-- Generator: Adobe Illustrator 16.0.0, SVG Export Plug-In . SVG Version: 6.00 Build 0)  -->
<!DOCTYPE svg PUBLIC "-//W3C//DTD SVG 1.1//EN" "http://www.w3.org/Graphics/SVG/1.1/DTD/svg11.dtd">
<svg version="1.1" id="Ebene_1" xmlns="http://www.w3.org/2000/svg" xmlns:xlink="http://www.w3.org/1999/xlink" x="0px" y="0px"
	 width="688.175px" height="587.223px" viewBox="0 0 688.175 587.223" enable-background="new 0 0 688.175 587.223"
	 xml:space="preserve">
<g>
	<path fill="#613E91" d="M383.665,287.162c-20.041-5.292-35.406-3.236-46.889,3.604c-6.365-11.806-18.449-21.486-38.391-27.274
		c-97.062-28.188-175.979,91.595-167.424,115.385c8.652,23.819,73.893,54.649,125.904,43.737
		c16.756-3.485,37.145-18.429,53.801-37.919c4.23,25.289,14.025,48.603,26.605,60.239c38.881,36.151,110.684,43.354,130.428,27.424
		C487.29,456.373,481.472,313.067,383.665,287.162z"/>
	<path fill="#E03620" d="M602.798,199.37c-0.049-30.154-147.777-64.767-252.648,54.649c-1.742,1.985-3.232,3.882-4.775,5.788
		c-0.396-2.452-0.695-4.845-1.143-7.427C315.89,95.999,171.487,49.472,155.923,75.307c-15.662,25.885-6.711,137.616,30.582,206.712
		c24.217,44.968,89.803,81.943,127.096,92.28c37.195,10.346,112.477,12.48,156.438-13.573
		C537.61,320.752,602.849,229.634,602.798,199.37z"/>
</g>
</svg>
