<?xml version="1.0" encoding="utf-8"?>
<!-- Generator: Adobe Illustrator 16.0.0, SVG Export Plug-In . SVG Version: 6.00 Build 0)  -->
<!DOCTYPE svg PUBLIC "-//W3C//DTD SVG 1.1//EN" "http://www.w3.org/Graphics/SVG/1.1/DTD/svg11.dtd">
<svg version="1.1" id="Ebene_1" xmlns="http://www.w3.org/2000/svg" xmlns:xlink="http://www.w3.org/1999/xlink" x="0px" y="0px"
	 width="1224.89px" height="461px" viewBox="0 0 1224.89 461" enable-background="new 0 0 1224.89 461" xml:space="preserve">
<g>
	<g>
		<path fill="#613E91" d="M1098.234,202.113c-3.942-1.041-6.965-0.637-9.224,0.709c-1.252-2.322-3.629-4.227-7.552-5.365
			c-19.093-5.545-34.616,18.018-32.934,22.697c1.702,4.686,14.535,10.75,24.767,8.604c3.296-0.686,7.307-3.625,10.583-7.459
			c0.832,4.975,2.759,9.561,5.233,11.85c7.648,7.111,21.772,8.528,25.656,5.395C1118.618,235.398,1117.474,207.209,1098.234,202.113
			z"/>
		<path fill="#E03620" d="M1141.34,184.844c-0.01-5.932-29.069-12.74-49.698,10.75c-0.343,0.391-0.636,0.764-0.939,1.139
			c-0.078-0.482-0.137-0.953-0.225-1.461c-5.575-30.762-33.98-39.914-37.042-34.832c-3.081,5.092-1.32,27.07,6.016,40.662
			c4.764,8.846,17.665,16.119,25.001,18.152c7.316,2.035,22.125,2.455,30.772-2.67
			C1128.517,208.721,1141.35,190.797,1141.34,184.844z"/>
	</g>
	<g>
		<path fill="#000000" d="M131.195,272.18c4.846,0,9.135-1.363,12.871-4.089c3.733-2.726,6.459-6.258,8.177-10.6h12.265
			c-2.323,7.472-6.562,13.477-12.72,18.02c-6.461,4.645-14.134,6.965-23.016,6.965c-11.106,0-20.14-3.785-27.104-11.356
			c-6.765-7.367-10.146-16.604-10.146-27.71c0-11.104,3.381-20.341,10.146-27.711c6.965-7.57,15.998-11.356,27.104-11.356
			c8.882,0,16.555,2.323,23.016,6.966c6.157,4.543,10.396,10.55,12.72,18.02h-12.265c-1.718-4.34-4.443-7.874-8.177-10.6
			c-3.736-2.726-8.025-4.089-12.871-4.089s-8.96,0.757-12.341,2.271c-3.384,1.514-6.234,3.584-8.556,6.208
			c-4.947,5.451-7.42,12.216-7.42,20.291c0,8.077,2.473,14.839,7.42,20.29C115.346,269.354,122.311,272.18,131.195,272.18z"/>
		<path fill="#000000" d="M186.19,175.269v42.096c2.726-3.634,6.057-6.712,9.994-9.236c3.937-2.522,8.428-3.786,13.477-3.786
			c5.046,0,9.388,0.708,13.022,2.12c3.634,1.415,6.813,3.535,9.539,6.359c6.258,6.159,9.389,14.286,9.389,24.38v44.063h-11.357
			v-43.761c0-6.966-1.968-12.517-5.905-16.657c-3.937-4.138-9.035-6.208-15.294-6.208c-6.359,0-11.761,2.12-16.202,6.359
			c-4.443,4.342-6.662,9.895-6.662,16.657v43.609h-11.356V175.269H186.19z"/>
		<path fill="#000000" d="M316.08,269.15c-6.057,8.885-15.093,13.325-27.104,13.325c-10.902,0-19.787-3.785-26.65-11.356
			c-6.663-7.469-9.994-16.706-9.994-27.71c0-11.002,3.331-20.238,9.994-27.711c6.863-7.57,15.998-11.356,27.407-11.356
			c11.406,0,20.188,4.493,26.348,13.477v-12.265h11.356v75.711H316.08V269.15z M290.489,272.18c8.177,0,14.636-2.825,19.382-8.48
			c4.543-5.349,6.814-12.113,6.814-20.29s-2.271-14.938-6.814-20.291c-4.746-5.652-11.205-8.479-19.382-8.479
			c-8.077,0-14.638,2.827-19.685,8.479c-4.746,5.353-7.117,12.114-7.117,20.291s2.371,14.941,7.117,20.29
			C275.852,269.354,282.412,272.18,290.489,272.18z"/>
		<path fill="#000000" d="M376.602,204.342c11.305,0,20.492,3.786,27.559,11.356c6.663,7.269,9.994,16.506,9.994,27.711
			s-3.331,20.441-9.994,27.71c-7.066,7.571-16.254,11.356-27.559,11.356c-11.307,0-20.494-3.785-27.559-11.356
			c-6.663-7.269-9.994-16.505-9.994-27.71s3.331-20.442,9.994-27.711C356.107,208.128,365.295,204.342,376.602,204.342z
			 M376.602,272.18c8.177,0,14.636-2.825,19.382-8.48c4.543-5.349,6.814-12.113,6.814-20.29s-2.271-14.938-6.814-20.291
			c-4.746-5.652-11.205-8.479-19.382-8.479s-14.639,2.827-19.382,8.479c-4.543,5.353-6.814,12.114-6.814,20.291
			s2.271,14.941,6.814,20.29C361.963,269.354,368.425,272.18,376.602,272.18z"/>
		<path fill="#000000" d="M470.134,225.844c-1.01-7.874-7.344-11.811-19.003-11.811c-11.66,0-17.489,3.634-17.489,10.902
			c0,3.028,1.234,5.326,3.71,6.89c2.472,1.566,5.576,2.854,9.312,3.861c3.733,1.01,7.798,1.944,12.189,2.801
			c4.391,0.859,8.453,2.07,12.189,3.635c3.733,1.566,6.837,3.71,9.312,6.436c2.472,2.726,3.71,6.461,3.71,11.205
			c0,7.37-2.778,12.999-8.329,16.884c-5.553,3.887-13.074,5.829-22.562,5.829c-10.096,0-18.121-2.521-24.076-7.57
			c-5.451-4.441-8.38-10.245-8.782-17.414h11.811c0.705,6.966,4.643,11.659,11.812,14.082c2.623,0.81,5.224,1.212,7.798,1.212
			s4.971-0.151,7.192-0.454c2.22-0.303,4.392-0.856,6.512-1.666c4.845-1.916,7.268-5.198,7.268-9.843
			c0-3.128-1.237-5.526-3.71-7.192c-2.475-1.665-5.578-3.028-9.312-4.088c-3.735-1.061-7.798-2.019-12.189-2.877
			c-4.391-0.856-8.456-2.045-12.189-3.559c-3.735-1.515-6.84-3.582-9.312-6.209c-2.475-2.623-3.71-6.258-3.71-10.902
			c0-6.863,2.499-12.189,7.496-15.975c4.997-3.786,12.391-5.679,22.184-5.679c9.286,0,16.604,2.222,21.956,6.663
			c4.44,3.735,7.015,8.683,7.723,14.839H470.134z"/>
		<path fill="#000000" d="M528.521,235.384l32.707,45.881h-13.931l-26.499-38.007l-14.233,14.082v23.925h-11.356V175.269h11.356
			v67.838l36.493-37.553h15.899L528.521,235.384z"/>
		<path fill="#000000" d="M596.753,204.342c11.305,0,20.492,3.786,27.559,11.356c6.663,7.269,9.994,16.506,9.994,27.711
			s-3.331,20.441-9.994,27.71c-7.066,7.571-16.254,11.356-27.559,11.356c-11.307,0-20.494-3.785-27.559-11.356
			c-6.663-7.269-9.994-16.505-9.994-27.71s3.331-20.442,9.994-27.711C576.259,208.128,585.446,204.342,596.753,204.342z
			 M596.753,272.18c8.177,0,14.636-2.825,19.382-8.48c4.543-5.349,6.814-12.113,6.814-20.29s-2.271-14.938-6.814-20.291
			c-4.746-5.652-11.205-8.479-19.382-8.479s-14.639,2.827-19.382,8.479c-4.543,5.353-6.814,12.114-6.814,20.291
			s2.271,14.941,6.814,20.29C582.114,269.354,588.576,272.18,596.753,272.18z"/>
		<path fill="#000000" d="M657.2,281.265h-11.356V175.269H657.2V281.265z"/>
		<path fill="#000000" d="M684.303,281.265h-11.356V175.269h11.356V281.265z"/>
		<path fill="#000000" d="M734.467,272.18c10.195,0,17.514-4.24,21.957-12.72h12.416c-2.626,6.866-6.79,12.416-12.492,16.656
			c-5.704,4.24-13.049,6.359-22.032,6.359c-11.408,0-20.695-3.785-27.861-11.356c-6.966-7.367-10.448-16.604-10.448-27.71
			c0-11.205,3.331-20.442,9.994-27.711c7.064-7.57,16.252-11.356,27.559-11.356c11.305,0,20.492,3.786,27.559,11.356
			c6.663,7.269,9.994,16.506,9.994,27.711v4.543h-63.446c0.807,6.965,3.582,12.719,8.328,17.262
			C720.839,269.858,726.995,272.18,734.467,272.18z M733.559,214.639c-6.966,0-12.821,2.172-17.565,6.511
			c-4.443,4.141-7.169,9.54-8.177,16.203h51.484c-1.011-6.663-3.736-12.062-8.177-16.203
			C746.377,216.811,740.524,214.639,733.559,214.639z"/>
		<path fill="#000000" d="M815.295,235.384l32.707,45.881h-13.931l-26.499-38.007l-14.233,14.082v23.925h-11.356V175.269h11.356
			v67.838l36.493-37.553h15.899L815.295,235.384z"/>
		<path fill="#000000" d="M866.037,281.265v-65.718h-15.445v-9.993h15.445v-27.104h11.356v27.104h17.414v9.993h-17.414v65.718
			H866.037z"/>
		<path fill="#000000" d="M914.732,177.994v14.84h-12.265v-14.84H914.732z M902.922,205.554h11.356v75.711h-11.356V205.554z"/>
		<path fill="#000000" d="M994.105,205.554l-29.527,75.711h-13.325l-29.679-75.711h12.417l23.925,63.597l23.773-63.597H994.105z"/>
		<path fill="#000000" d="M1006.703,265.819v15.445h-14.688v-15.445H1006.703z"/>
	</g>
</g>
</svg>
